<svg id="Layer_1" enable-background="new 0 0 505.504 505.504" height="512" viewBox="0 0 505.504 505.504" width="512" xmlns="http://www.w3.org/2000/svg"><g><path d="m220.822 99.56 38.457-7.289.088.272c3.559 10.989-3.382 22.596-14.747 24.66l-1.324.24c-11.357 2.063-21.932-6.352-22.474-17.883z" fill="#ffb69e"/><g><g id="XMLID_6965_"><path d="m318.675 505.504c-12.668 0-23.311-9.863-24.104-22.679l-13.895-204.266 22.632-25.625 25.624 22.632 13.895 204.266c.826 13.326-9.306 24.798-22.632 25.625-.509.031-1.016.047-1.52.047z" fill="#414b82"/></g><g id="XMLID_6941_"><path d="m235.972 505.504c-.504 0-1.009-.016-1.519-.047-13.326-.827-23.458-12.299-22.632-25.625l11.981-193.23c.826-13.326 12.297-23.447 25.625-22.632 13.326.827 23.459 12.299 22.632 25.625l-11.981 193.23c-.796 12.816-11.439 22.679-24.106 22.679z" fill="#5f6e9b"/></g></g><ellipse cx="230.107" cy="41.76" fill="#ffb69e" rx="41.752" ry="41.752" transform="matrix(.707 -.707 .707 .707 37.868 174.941)"/><path d="m353.201 148.998-4.813-36.447-52.715-23.516c-3.751-1.673-7.926-2.161-11.958-1.395-10.867 2.06-8.357 1.584-24.437 4.631.212 1.069.364 2.157.414 3.27.477 10.647-9.403 19.716-19.716 19.716-9.633 0-17.082-6.863-19.155-15.697-6.783 1.286-14.485 2.745-23.286 4.414-4.199.796-8.035 2.906-10.956 6.025l-41.371 44.195 6.146 22.385 21.539 6.996 24.574-26.251 26.193 138.195 105.269-19.952-26.605-139.447 32.527 14.51z" fill="#64afff"/><g><g id="XMLID_270_"><path d="m325.089 235.29c-10.466-3.775-15.89-15.32-12.114-25.786l35.413-96.953s12.903 6.145 18.6 8.357c10.372 4.027 15.89 15.32 12.114 25.786l-28.227 76.482c-3.769 10.448-15.304 15.895-25.786 12.114z" fill="#ffb69e"/></g></g><g><g id="XMLID_269_"><path d="m183.942 253.416-53.348-56.028c-7.616-8.11-7.003-20.639.895-28.476 5.745-5.701 13.72-14.718 13.72-14.718l68.103 71.641c7.617 8.11 7.216 20.859-.895 28.476-8.127 7.633-20.876 7.196-28.475-.895z" fill="#ffb69e"/></g></g></g></svg>